# xmcd
#
# Track frame offsets:
#	150
#	22124
#	46685
#	68722
#	89198
#	109204
#	123936
#	145915
#	159934
#	179379
#
# Disc length: 2623 seconds
#
# Revision: 1
# Processed by: cddbd v1.4PL0 Copyright (c) Steve Scherf et al.
# Submitted via: audiograbber 1.81.02
#
DISCID=860a3d0a
DTITLE=Tony Galla - A.S.A.P.
DYEAR=2000
DGENRE=Blues
TTITLE0=The Blues Would Slip Right In
TTITLE1=A.S.A.P.
TTITLE2=The Jealous Kind
TTITLE3=Travellin' On
TTITLE4=Take A Giant Step
TTITLE5=Man In My Blues
TTITLE6=She's All I Ever Need (Angel Of Mercy)
TTITLE7=Desire
TTITLE8=Worried Mind Blues
TTITLE9=That'll Do It For Me
EXTD=
EXTT0=
EXTT1=
EXTT2=
EXTT3=
EXTT4=
EXTT5=
EXTT6=
EXTT7=
EXTT8=
EXTT9=
PLAYORDER=
